<?xml version="1.0" standalone="no"?>
<svg viewBox="0 0 200 200" xmlns="http://www.w3.org/2000/svg">
  <path fill="#F07D00" d="M36.2,-67.6C43.5,-58.5,43.6,-41.9,51.3,-29.3C59.1,-16.8,74.6,-8.4,81.1,3.7C87.5,15.9,85.1,31.8,74.5,39.5C64,47.3,45.4,46.9,31.7,49.2C17.9,51.4,9,56.3,-0.6,57.3C-10.1,58.3,-20.2,55.4,-29.9,50.8C-39.5,46.2,-48.6,39.7,-56.3,31C-64,22.2,-70.4,11.1,-70,0.2C-69.6,-10.7,-62.6,-21.4,-57.4,-34.6C-52.3,-47.7,-49,-63.4,-39.7,-71.3C-30.4,-79.2,-15.2,-79.4,-0.4,-78.7C14.5,-78,28.9,-76.6,36.2,-67.6Z" transform="translate(100 100)" />
</svg>
