<?xml version="1.0" encoding="utf-8"?>
<!-- Generator: Adobe Illustrator 27.0.0, SVG Export Plug-In . SVG Version: 6.00 Build 0)  -->
<svg version="1.1" id="Calque_1" xmlns="http://www.w3.org/2000/svg" xmlns:xlink="http://www.w3.org/1999/xlink" x="0px" y="0px"
	 viewBox="0 0 2100 2100" style="enable-background:new 0 0 2100 2100;" xml:space="preserve">
<style type="text/css">
	.st0{fill:none;stroke:#FFFFFF;stroke-width:18.739;stroke-linecap:round;stroke-linejoin:round;stroke-miterlimit:1;}
</style>
<path class="st0" d="M2915.9,1456.9L2449,990V722.4L1678.8-47.8"/>
<path class="st0" d="M2149.5,2223.3l-466.9-466.9v-267.6l-206.3-206.3"/>
<path class="st0" d="M2451.6,1921.2l-733-733V920.7l-504.1-504.2"/>
<path class="st0" d="M2545.4,980.5V712.9l-964.6-964.6"/>
<path class="st0" d="M1779,1746.9v-267.6l-400.7-400.7"/>
<path class="st0" d="M1815,1178.7V911.1l-698.5-698.5"/>
<path class="st0" d="M1779,1746.9l423.5,423.5"/>
<path class="st0" d="M1815,1178.7l689.5,689.5"/>
<path class="st0" d="M2651.3,980.5V712.9l-111.7-111.7V419.9l-582.1-582.1"/>
<path class="st0" d="M1920.9,1178.7V911.1l-111.7-111.7V618.1L1493.1,302"/>
<path class="st0" d="M956.5,1451.9l264.3,264.3h167.1"/>
<path class="st0" d="M644.4,835l724.4,724.4h98.4"/>
<path class="st0" d="M2359.3,1017.1V749.5l-954.4-954.4v-181.3"/>
<path class="st0" d="M1592.9,1783.5v-267.6l-390.5-390.5V944.1"/>
<path class="st0" d="M1628.9,1215.3V947.7L940.6,259.4H758.4"/>
<path class="st0" d="M2026.9,1178.7V641.5l-227.8-227.8"/>
<path class="st0" d="M1456.8,1250.2c3.6-3.6,9.4-3.6,13,0l13,13c3.6,3.6,3.6,9.4,0,13l-13,13c-3.6,3.6-9.4,3.6-13,0l-13-13
	c-3.6-3.6-3.6-9.4,0-13L1456.8,1250.2z"/>
<path class="st0" d="M1195,384.2c3.6-3.6,9.4-3.6,13,0l13,13c3.6,3.6,3.6,9.4,0,13l-13,13c-3.6,3.6-9.4,3.6-13,0l-13-13
	c-3.6-3.6-3.6-9.4,0-13L1195,384.2z"/>
<path class="st0" d="M1358.7,1046.4c3.6-3.6,9.4-3.6,13,0l13,13c3.6,3.6,3.6,9.4,0,13l-13,13c-3.6,3.6-9.4,3.6-13,0l-13-13
	c-3.6-3.6-3.6-9.4,0-13L1358.7,1046.4z"/>
<path class="st0" d="M1096.8,180.3c3.6-3.6,9.4-3.6,13,0l13,13c3.6,3.6,3.6,9.4,0,13l-13,13c-3.6,3.6-9.4,3.6-13,0l-13-13
	c-3.6-3.6-3.6-9.4,0-13L1096.8,180.3z"/>
<path class="st0" d="M1183.9,916.6c0-5.1,4.1-9.2,9.2-9.2h18.3c5.1,0,9.2,4.1,9.2,9.2v18.3c0,5.1-4.1,9.2-9.2,9.2H1193
	c-5.1,0-9.2-4.1-9.2-9.2V916.6z"/>
<path class="st0" d="M717.5,255.1c0-5.1,4.1-9.2,9.2-9.2H745c5.1,0,9.2,4.1,9.2,9.2v18.3c0,5.1-4.1,9.2-9.2,9.2h-18.3
	c-5.1,0-9.2-4.1-9.2-9.2V255.1z"/>
<path class="st0" d="M1020.3,633.1c0-5.1,4.1-9.2,9.2-9.2h18.3c5.1,0,9.2,4.1,9.2,9.2v18.3c0,5.1-4.1,9.2-9.2,9.2h-18.3
	c-5.1,0-9.2-4.1-9.2-9.2V633.1z"/>
<path class="st0" d="M1460.7,295.6c-3.6-3.6-3.6-9.4,0-13l13-13c3.6-3.6,9.4-3.6,13,0l13,13c3.6,3.6,3.6,9.4,0,13l-13,13
	c-3.6,3.6-9.4,3.6-13,0L1460.7,295.6z"/>
<path class="st0" d="M1766.7,407.2c-3.6-3.6-3.6-9.4,0-13l13-13c3.6-3.6,9.4-3.6,13,0l13,13c3.6,3.6,3.6,9.4,0,13l-13,13
	c-3.6,3.6-9.4,3.6-13,0L1766.7,407.2z"/>
<path class="st0" d="M911.2,406.7c-3.6-3.6-3.6-9.4,0-13l13-13c3.6-3.6,9.4-3.6,13,0l13,13c3.6,3.6,3.6,9.4,0,13l-13,13
	c-3.6,3.6-9.4,3.6-13,0L911.2,406.7z"/>
<path class="st0" d="M1507,1002.5c-3.6-3.6-3.6-9.4,0-13l13-13c3.6-3.6,9.4-3.6,13,0l13,13c3.6,3.6,3.6,9.4,0,13l-13,13
	c-3.6,3.6-9.4,3.6-13,0L1507,1002.5z"/>
<path class="st0" d="M2099.4,1164.7c-3.6-3.6-3.6-9.4,0-13l13-13c3.6-3.6,9.4-3.6,13,0l13,13c3.6,3.6,3.6,9.4,0,13l-13,13
	c-3.6,3.6-9.4,3.6-13,0L2099.4,1164.7z"/>
<path class="st0" d="M897,856.9c3.6,3.6,9.4,3.6,13,0l13-13c3.6-3.6,3.6-9.4,0-13l-13-13c-3.6-3.6-9.4-3.6-13,0l-13,13
	c-3.6,3.6-3.6,9.4,0,13L897,856.9z"/>
<path class="st0" d="M288.5,248.4c3.6,3.6,9.4,3.6,13,0l13-13c3.6-3.6,3.6-9.4,0-13l-13-13c-3.6-3.6-9.4-3.6-13,0l-13,13
	c-3.6,3.6-3.6,9.4,0,13L288.5,248.4z"/>
<path class="st0" d="M1993.7,1800.5c-3.6-3.6-9.4-3.6-13,0l-13,13c-3.6,3.6-3.6,9.4,0,13l13,13c3.6,3.6,9.4,3.6,13,0l13-13
	c3.6-3.6,3.6-9.4,0-13L1993.7,1800.5z"/>
<path class="st0" d="M1503.9,1550.2c0-5.1-4.1-9.2-9.2-9.2h-18.4c-5.1,0-9.2,4.1-9.2,9.2v18.3c0,5.1,4.1,9.2,9.2,9.2h18.4
	c5.1,0,9.2-4.1,9.2-9.2V1550.2z"/>
<path class="st0" d="M1916.6,1593.5c-3.6-3.6-9.4-3.6-13,0l-13,13c-3.6,3.6-3.6,9.4,0,13l13,13c3.6,3.6,9.4,3.6,13,0l13-13
	c3.6-3.6,3.6-9.4,0-13L1916.6,1593.5z"/>
<path class="st0" d="M1084.9,1044.8c-3.6-3.6-3.6-9.4,0-13l13-13c3.6-3.6,9.4-3.6,13,0l13,13c3.6,3.6,3.6,9.4,0,13l-13,13
	c-3.6,3.6-9.4,3.6-13,0L1084.9,1044.8z"/>
<path class="st0" d="M950,1419.5c-3.6-3.6-9.4-3.6-13,0l-13,13c-3.6,3.6-3.6,9.4,0,13l13,13c3.6,3.6,9.4,3.6,13,0l13-13
	c3.6-3.6,3.6-9.4,0-13L950,1419.5z"/>
<path class="st0" d="M783.9,1086.3c-3.6-3.6-9.4-3.6-13,0l-13,13c-3.6,3.6-3.6,9.4,0,13l13,13c3.6,3.6,9.4,3.6,13,0l13-13
	c3.6-3.6,3.6-9.4,0-13L783.9,1086.3z"/>
<path class="st0" d="M637.9,802.5c-3.6-3.6-9.4-3.6-13,0l-13,13c-3.6,3.6-3.6,9.4,0,13l13,13c3.6,3.6,9.4,3.6,13,0l13-13
	c3.6-3.6,3.6-9.4,0-13L637.9,802.5z"/>
<path class="st0" d="M1920.9,1178.7l636.6,636.6"/>
<path class="st0" d="M1592.9,1783.5l498.2,498.2"/>
<path class="st0" d="M1628.9,1215.3l764.3,764.3"/>
<path class="st0" d="M2026.9,1178.7l583.6,583.6"/>
<path class="st0" d="M790.4,1118.7l1231.8,1231.8"/>
<path class="st0" d="M943.6,413.2l569.8,569.8"/>
<path class="st0" d="M890.6,824.5L308,241.9"/>
<path class="st0" d="M2000.2,1832.9l268.8,268.8"/>
<path class="st0" d="M1923.1,1625.9l410.8,410.8"/>
<path class="st0" d="M1091.4,1025.3l-52.9-52.9"/>
<path class="st0" d="M1038.4,972.4V660.7"/>
</svg>
